# xmcd CD database file
#
# Track frame offsets:
#	150
#	10465
#	23587
#	34435
#	45959
#	59492
#	72117
#	81817
#	93752
#	107937
#	120086
#	131574
#	144298
#	156720
#	169797
#	181837
#	194618
#	207398
#	219428
#	231398
#	241836
#	254126
#
# Disc length: 3550 seconds
#
# Revision: 2
# Processed by: cddbd v1.4b41PL1 Copyright (c) Steve Scherf et al.
# Submitted via: Feurio! 1.60 - http://www.feurio.com
#
DISCID=370ddc16,380ddc16
DTITLE=Lightning Hopkins - Nightmare Blues
DYEAR=1900
DGENRE=
TTITLE0=Down Now Baby
TTITLE1=L. A. Blues
TTITLE2=Short Haired Women
TTITLE3=Can´t Do Like You Used To
TTITLE4=Katie May
TTITLE5=Rocky Mountain Blues
TTITLE6=I Feel So Good
TTITLE7=West Coast Blues
TTITLE8=The Twister
TTITLE9=Big Mama Jump
TTITLE10=Let Me Play With Your Poodle
TTITLE11=Fast Mail Rambler
TTITLE12=Woman Woman Change Your Ways
TTITLE13=Thinkin And Worryin
TTITLE14=Cant Get That Woman Off My Mind
TTITLE15=You´re Not Going To Worry About Life Anymore
TTITLE16=Picture On The Wall
TTITLE17=Someday Baby Blues
TTITLE18=Noghtmare Blues
TTITLE19=Youre Gonna Miss Me
TTITLE20=Sugar Mama
TTITLE21=Come Back Baby
EXTD=
EXTT0=
EXTT1=
EXTT2=
EXTT3=
EXTT4=
EXTT5=
EXTT6=
EXTT7=
EXTT8=
EXTT9=
EXTT10=
EXTT11=
EXTT12=
EXTT13=
EXTT14=
EXTT15=
EXTT16=
EXTT17=
EXTT18=
EXTT19=
EXTT20=
EXTT21=
PLAYORDER=
